<mxfile host="app.diagrams.net" modified="2023-11-26T14:24:45.379Z" agent="Mozilla/5.0 (Windows NT 10.0; Win64; x64) AppleWebKit/537.36 (KHTML, like Gecko) Chrome/118.0.0.0 Safari/537.36 OPR/104.0.0.0 (Edition std-1)" etag="CHFxYfE0cHmcIpJIPILB" version="22.1.4" type="github">
  <diagram name="Seite-1" id="47VuI0KYNX6qi21zTM0Q">
    <mxGraphModel dx="1009" dy="542" grid="1" gridSize="10" guides="1" tooltips="1" connect="1" arrows="1" fold="1" page="1" pageScale="1" pageWidth="827" pageHeight="1169" math="0" shadow="0">
      <root>
        <mxCell id="0" />
        <mxCell id="1" parent="0" />
        <mxCell id="XRhFK9jpqbsbtbAOyWkq-1" value="Handbuch-Item" style="whiteSpace=wrap;html=1;fillColor=none;verticalAlign=top;" vertex="1" parent="1">
          <mxGeometry x="269" y="315" width="387" height="235" as="geometry" />
        </mxCell>
        <mxCell id="XRhFK9jpqbsbtbAOyWkq-4" value="Spieler" style="shape=umlActor;verticalLabelPosition=bottom;labelBackgroundColor=#ffffff;verticalAlign=top;html=1;fillColor=none;" vertex="1" parent="1">
          <mxGeometry x="134" y="368" width="30" height="60" as="geometry" />
        </mxCell>
        <mxCell id="XRhFK9jpqbsbtbAOyWkq-5" value="Funktionsweise der Mod einsehen&amp;nbsp;" style="ellipse;whiteSpace=wrap;html=1;fillColor=#0e6e7c;fontColor=#FFFFFF;" vertex="1" parent="1">
          <mxGeometry x="480" y="489.5" width="160" height="40" as="geometry" />
        </mxCell>
        <mxCell id="XRhFK9jpqbsbtbAOyWkq-8" style="edgeStyle=orthogonalEdgeStyle;rounded=1;orthogonalLoop=1;jettySize=auto;html=1;endArrow=none;endFill=0;" edge="1" parent="1" source="XRhFK9jpqbsbtbAOyWkq-4" target="XRhFK9jpqbsbtbAOyWkq-5">
          <mxGeometry relative="1" as="geometry">
            <mxPoint x="109" y="408.344827586207" as="sourcePoint" />
            <mxPoint x="360.00240788403744" y="407.65517241379314" as="targetPoint" />
            <Array as="points">
              <mxPoint x="229" y="398" />
              <mxPoint x="229" y="510" />
            </Array>
          </mxGeometry>
        </mxCell>
      </root>
    </mxGraphModel>
  </diagram>
</mxfile>
